<svg data-v-423bf9ae="" xmlns="http://www.w3.org/2000/svg" viewBox="0 0 383 111" class="iconLeft"><!----><!----><!----><g data-v-423bf9ae="" id="bed93e5a-a402-42d7-ba90-81e9940a8af6" fill="white" transform="matrix(5.899704933166504,0,0,5.899704933166504,89.38618469238281,0.11385370045900345)"><path d="M8.39 11.34C8.39 9.94 7.62 9.30 7.01 9.02C7.52 8.78 8.25 8.08 8.25 6.97C8.25 5.26 7.32 4.24 5.38 4.24L1.16 4.24L1.16 11.65C1.16 13.55 2.02 14.21 4.20 14.21L5.54 14.21C7.32 14.21 8.39 13.20 8.39 11.34ZM6.30 7.04C6.30 7.66 6.05 8.13 5.22 8.13L3.11 8.13L3.11 5.98L5.22 5.98C6.05 5.98 6.30 6.43 6.30 7.04ZM6.44 11.24C6.44 11.91 6.23 12.47 5.35 12.47L4.34 12.47C3.50 12.47 3.11 12.24 3.11 11.45L3.11 9.88L5.35 9.88C6.23 9.88 6.44 10.43 6.44 11.24ZM14.56 10.60C14.56 11.55 14.41 12.77 13.01 12.77C11.73 12.77 11.47 11.55 11.47 10.54L11.47 9.81C11.47 8.75 11.77 7.74 13.01 7.74C14.41 7.74 14.56 8.72 14.56 9.87ZM16.38 10.18C16.38 7.69 15.64 6.10 13.01 6.10C10.28 6.10 9.65 7.85 9.65 10.18C9.65 12.70 10.26 14.41 13.01 14.41C15.79 14.41 16.38 12.73 16.38 10.18ZM22.16 10.60C22.16 11.55 22.01 12.77 20.61 12.77C19.33 12.77 19.07 11.55 19.07 10.54L19.07 9.81C19.07 8.75 19.38 7.74 20.61 7.74C22.01 7.74 22.16 8.72 22.16 9.87ZM23.98 10.18C23.98 7.69 23.24 6.10 20.61 6.10C17.88 6.10 17.25 7.85 17.25 10.18C17.25 12.70 17.86 14.41 20.61 14.41C23.39 14.41 23.98 12.73 23.98 10.18ZM35.74 14.21L35.74 8.85C35.74 7.27 35.10 6.13 33.57 6.13L30.97 7.20C30.66 6.61 30.13 6.13 29.32 6.13L27.22 7.17L26.80 6.22L25.44 6.22L25.44 14.21L27.26 14.21L27.26 8.60L28.76 7.91C29.33 7.91 29.68 8.25 29.68 9.24L29.68 14.21L31.50 14.21L31.50 8.60L33.14 7.91C33.71 7.91 33.92 8.25 33.92 9.24L33.92 14.21ZM43.69 10.64C43.71 10.25 43.72 9.84 43.72 9.49C43.72 7.63 42.99 6.12 40.68 6.12C38.37 6.12 37.23 7.27 37.23 9.93C37.23 13.44 38.28 14.39 40.74 14.39C42.45 14.39 43.71 13.58 43.71 11.49L42.07 11.49C42.07 11.86 41.78 12.74 40.75 12.74C39.28 12.74 39.03 11.97 39.03 10.64ZM39.07 9.39C39.07 8.11 39.76 7.63 40.63 7.63C41.59 7.63 42.07 8.13 42.07 9.39ZM49.62 6.24C49.35 6.05 49.11 6.08 48.80 6.12L46.87 6.92L46.45 6.22L45.09 6.22L45.09 14.21L46.91 14.21L46.91 8.55C47.84 8.01 48.64 7.85 49.11 8.04Z"></path></g><!----><g data-v-423bf9ae="" id="bd011b81-6b29-402d-ae7c-94205bcf41e4" transform="matrix(1.1068333387374878,0,0,1.1068333387374878,-16.76781463623047,-0.1539197862148285)" stroke="none" fill="white"><path d="M84.228 4.966c-.296-1.263-1.122-2.275-2.33-2.851L79.258.858c-.155-.291-.52-.621-1.378-.621-.351 0-.756.056-1.204.165L50.715 6.727c-2.497.609-5.491 2.96-6.675 5.242L24.903 48.86c-.569 1.096-.642 2.097-.205 2.815.476.783 1.518 1.136 2.856.954l3.169-.426c1.15-.153 2.051.13 2.455.771.374.592.326 1.449-.134 2.413l-17.013 35.97c-.522 1.094-.583 1.143-.553 2.143h.022v-.543c0 .006-.029.012-.028.018l.589 3.419c.275 2.393 1.49 3.12 2.193 3.342.205.062.465.116.775.116.763 0 1.804-.321 2.933-1.606L65.73 48.434c1.145-1.302 1.639-2.887 1.355-4.351-.251-1.304-1.077-2.37-2.325-3.002l-2.696-1.366c-.189-.384-.669-.824-1.884-.824-.083 0-.181.013-.271.017L83.063 9.443c1.083-1.378 1.507-3.009 1.165-4.477zM64.401 44.602c.12.626-.144 1.366-.726 2.028l-43.77 49.808c-.405.46-.707.625-.836.667-.083-.108-.238-.415-.308-1.024 0 0-.606-3.586-.552-4.913L61.14 42.312l2.384 1.208c.484.245.787.619.877 1.082zM80.912 7.754L56.106 39.323l-2.517.288c-1.12.128-1.918-.099-2.168-.612-.236-.488.005-1.248.661-2.084L78.368 3.464l2.354 1.121c.453.216.737.555.844 1.005.152.654-.086 1.442-.654 2.164z"></path></g><!----></svg>