<svg data-v-fde0c5aa="" xmlns="http://www.w3.org/2000/svg" viewBox="0 0 300 300" class="font"><!----><defs data-v-fde0c5aa=""><!----></defs><rect data-v-fde0c5aa="" fill="#423833" x="0" y="0" width="300px" height="300px" class="logo-background-square"></rect><defs data-v-fde0c5aa=""><!----></defs><g data-v-fde0c5aa="" id="b796e2d9-7e71-4da3-abef-052bddfd4ab3" fill="#D1793F" transform="matrix(4.5398268699646,0,0,4.5398268699646,34.733801125091674,107.66611645076026)"><path d="M8.39 11.34C8.39 9.94 7.62 9.30 7.01 9.02C7.52 8.78 8.25 8.08 8.25 6.97C8.25 5.26 7.32 4.24 5.38 4.24L1.16 4.24L1.16 11.65C1.16 13.55 2.02 14.21 4.20 14.21L5.54 14.21C7.32 14.21 8.39 13.20 8.39 11.34ZM6.30 7.04C6.30 7.66 6.05 8.13 5.22 8.13L3.11 8.13L3.11 5.98L5.22 5.98C6.05 5.98 6.30 6.43 6.30 7.04ZM6.44 11.24C6.44 11.91 6.23 12.47 5.35 12.47L4.34 12.47C3.50 12.47 3.11 12.24 3.11 11.45L3.11 9.88L5.35 9.88C6.23 9.88 6.44 10.43 6.44 11.24ZM14.56 10.60C14.56 11.55 14.41 12.77 13.01 12.77C11.73 12.77 11.47 11.55 11.47 10.54L11.47 9.81C11.47 8.75 11.77 7.74 13.01 7.74C14.41 7.74 14.56 8.72 14.56 9.87ZM16.38 10.18C16.38 7.69 15.64 6.10 13.01 6.10C10.28 6.10 9.65 7.85 9.65 10.18C9.65 12.70 10.26 14.41 13.01 14.41C15.79 14.41 16.38 12.73 16.38 10.18ZM22.16 10.60C22.16 11.55 22.01 12.77 20.61 12.77C19.33 12.77 19.07 11.55 19.07 10.54L19.07 9.81C19.07 8.75 19.38 7.74 20.61 7.74C22.01 7.74 22.16 8.72 22.16 9.87ZM23.98 10.18C23.98 7.69 23.24 6.10 20.61 6.10C17.88 6.10 17.25 7.85 17.25 10.18C17.25 12.70 17.86 14.41 20.61 14.41C23.39 14.41 23.98 12.73 23.98 10.18ZM35.74 14.21L35.74 8.85C35.74 7.27 35.10 6.13 33.57 6.13L30.97 7.20C30.66 6.61 30.13 6.13 29.32 6.13L27.22 7.17L26.80 6.22L25.44 6.22L25.44 14.21L27.26 14.21L27.26 8.60L28.76 7.91C29.33 7.91 29.68 8.25 29.68 9.24L29.68 14.21L31.50 14.21L31.50 8.60L33.14 7.91C33.71 7.91 33.92 8.25 33.92 9.24L33.92 14.21ZM43.69 10.64C43.71 10.25 43.72 9.84 43.72 9.49C43.72 7.63 42.99 6.12 40.68 6.12C38.37 6.12 37.23 7.27 37.23 9.93C37.23 13.44 38.28 14.39 40.74 14.39C42.45 14.39 43.71 13.58 43.71 11.49L42.07 11.49C42.07 11.86 41.78 12.74 40.75 12.74C39.28 12.74 39.03 11.97 39.03 10.64ZM39.07 9.39C39.07 8.11 39.76 7.63 40.63 7.63C41.59 7.63 42.07 8.13 42.07 9.39ZM49.62 6.24C49.35 6.05 49.11 6.08 48.80 6.12L46.87 6.92L46.45 6.22L45.09 6.22L45.09 14.21L46.91 14.21L46.91 8.55C47.84 8.01 48.64 7.85 49.11 8.04Z"></path></g><!----><!----></svg>